<svg width="139" height="34" viewBox="0 0 139 34" fill="none" xmlns="http://www.w3.org/2000/svg">
<path d="M46.2444 30V4.8H50.5644V30H46.2444ZM56.4439 30V4.8H60.6559L73.7959 23.124L73.7239 4.8H77.7919V30H73.9399L60.4399 11.172L60.5119 30H56.4439ZM83.8306 30V4.8H101.939V8.472H88.1506V15.672H97.6546V19.272H88.1506V30H83.8306ZM106.467 30V4.8H110.787V30H106.467ZM122.967 30V8.544H114.543V4.8H135.711V8.544H127.287V30H122.967Z" fill="#232323"/>
<path d="M15.7636 29.0932L7.26364 24.1091C6.90303 23.903 6.62614 23.6197 6.43295 23.2591C6.23977 22.8985 6.14318 22.5121 6.14318 22.1V12.1705C6.14318 11.7583 6.23977 11.372 6.43295 11.0114C6.62614 10.6508 6.90303 10.3674 7.26364 10.1614L15.8023 5.1C16.1629 4.89394 16.5621 4.79091 17 4.79091C17.4379 4.79091 17.8371 4.89394 18.1977 5.1L26.7364 10.1614C27.097 10.3674 27.3739 10.6508 27.567 11.0114C27.7602 11.372 27.8568 11.7583 27.8568 12.1705V22.1C27.8568 22.5121 27.7538 22.8985 27.5477 23.2591C27.3417 23.6197 27.0583 23.903 26.6977 24.1091L18.0818 29.0932C17.7212 29.2992 17.3348 29.4023 16.9227 29.4023C16.5106 29.4023 16.1242 29.2992 15.7636 29.0932ZM15.8409 26.4273V17.7727L8.5 13.5614V22.0227L15.8409 26.4273ZM18.1591 26.4273L25.5386 22.0227V13.5614L18.1591 17.7727V26.4273ZM0 7.30227V4.32727C0 3.11667 0.418561 2.0928 1.25568 1.25568C2.0928 0.418561 3.11667 0 4.32727 0H7.30227V2.31818H4.32727C3.76061 2.31818 3.28409 2.51136 2.89773 2.89773C2.51136 3.28409 2.31818 3.76061 2.31818 4.32727V7.30227H0ZM4.32727 34C3.11667 34 2.0928 33.5814 1.25568 32.7443C0.418561 31.9072 0 30.8833 0 29.6727V26.6977H2.31818V29.6727C2.31818 30.2394 2.51136 30.7159 2.89773 31.1023C3.28409 31.4886 3.76061 31.6818 4.32727 31.6818H7.30227V34H4.32727ZM26.6977 33.8455V31.5273H29.6727C30.2394 31.5273 30.7159 31.3341 31.1023 30.9477C31.4886 30.5614 31.6818 30.0848 31.6818 29.5182V26.5432H34V29.5182C34 30.7288 33.5814 31.7527 32.7443 32.5898C31.9072 33.4269 30.8833 33.8455 29.6727 33.8455H26.6977ZM31.6818 7.30227V4.32727C31.6818 3.76061 31.4886 3.28409 31.1023 2.89773C30.7159 2.51136 30.2394 2.31818 29.6727 2.31818H26.6977V0H29.6727C30.8833 0 31.9072 0.418561 32.7443 1.25568C33.5814 2.0928 34 3.11667 34 4.32727V7.30227H31.6818ZM17 15.6864L24.3409 11.4364L17 7.225L9.65909 11.4364L17 15.6864Z" fill="#232323"/>
<path d="M15.7636 29.0932L7.26364 24.1091C6.90303 23.903 6.62614 23.6197 6.43295 23.2591C6.23977 22.8985 6.14318 22.5121 6.14318 22.1V12.1705C6.14318 11.7583 6.23977 11.372 6.43295 11.0114C6.62614 10.6508 6.90303 10.3674 7.26364 10.1614L15.8023 5.1C16.1629 4.89394 16.5621 4.79091 17 4.79091C17.4379 4.79091 17.8371 4.89394 18.1977 5.1L26.7364 10.1614C27.097 10.3674 27.3739 10.6508 27.567 11.0114C27.7602 11.372 27.8568 11.7583 27.8568 12.1705V22.1C27.8568 22.5121 27.7538 22.8985 27.5477 23.2591C27.3417 23.6197 27.0583 23.903 26.6977 24.1091L18.0818 29.0932C17.7212 29.2992 17.3348 29.4023 16.9227 29.4023C16.5106 29.4023 16.1242 29.2992 15.7636 29.0932ZM15.8409 26.4273V17.7727L8.5 13.5614V22.0227L15.8409 26.4273ZM18.1591 26.4273L25.5386 22.0227V13.5614L18.1591 17.7727V26.4273ZM0 7.30227V4.32727C0 3.11667 0.418561 2.0928 1.25568 1.25568C2.0928 0.418561 3.11667 0 4.32727 0H7.30227V2.31818H4.32727C3.76061 2.31818 3.28409 2.51136 2.89773 2.89773C2.51136 3.28409 2.31818 3.76061 2.31818 4.32727V7.30227H0ZM4.32727 34C3.11667 34 2.0928 33.5814 1.25568 32.7443C0.418561 31.9072 0 30.8833 0 29.6727V26.6977H2.31818V29.6727C2.31818 30.2394 2.51136 30.7159 2.89773 31.1023C3.28409 31.4886 3.76061 31.6818 4.32727 31.6818H7.30227V34H4.32727ZM26.6977 33.8455V31.5273H29.6727C30.2394 31.5273 30.7159 31.3341 31.1023 30.9477C31.4886 30.5614 31.6818 30.0848 31.6818 29.5182V26.5432H34V29.5182C34 30.7288 33.5814 31.7527 32.7443 32.5898C31.9072 33.4269 30.8833 33.8455 29.6727 33.8455H26.6977ZM31.6818 7.30227V4.32727C31.6818 3.76061 31.4886 3.28409 31.1023 2.89773C30.7159 2.51136 30.2394 2.31818 29.6727 2.31818H26.6977V0H29.6727C30.8833 0 31.9072 0.418561 32.7443 1.25568C33.5814 2.0928 34 3.11667 34 4.32727V7.30227H31.6818ZM17 15.6864L24.3409 11.4364L17 7.225L9.65909 11.4364L17 15.6864Z" stroke="black"/>
</svg>
